# xmcd
#
# Track frame offsets:
#	150
#	13645
#	32956
#	47870
#	67795
#	87873
#	113348
#	136437
#	156599
#	176958
#	196594
#	215116
#	226828
#	252553
#	273646
#	294380
#
# Disc length: 4112 seconds
#
# Revision: 0
# Processed by: cddbd v1.5.2PL0 Copyright (c) Steve Scherf et al.
# Submitted via: EZCDAudioConverter 1.3.4.1
#
DISCID=e9100e10
DTITLE=Various Artist - Kenya Special 2/2
DYEAR=1900
DGENRE=
TTITLE0=Lulus Band - Mutumia Muriu
TTITLE1=Sophia Ben and The Eagles Lupopo - See Serere
TTITLE2=The Loi Toki Tok - Leta Ngoma
TTITLE3=Orchestre Super Volcano - Mngeni Mali Yare Yore
TTITLE4=Rift Valley Brothers - Tiga Kurira
TTITLE5=Kalambya Boys - Kivelenge
TTITLE6=Huruma Boys Band - Teresia
TTITLE7=Gatanga Boys Band - Keep Change Kairitu
TTITLE8=Famous Nyahururu Boys - Mwendwa
TTITLE9=Eagles Lupopo - Pelekani
TTITLE10=Ndalani 77 Brothers - Nzaumi
TTITLE11=Afro 70 - Afrousa (Move On)
TTITLE12=Nairobi Matata Jazz - Tamba Tamba
TTITLE13=Kiratu and His Group - Yanagiria Kayo
TTITLE14=Afro 70 - Week End
TTITLE15=Mombasa Vikings - Kibe Kibe
EXTD=
EXTT0=
EXTT1=
EXTT2=
EXTT3=
EXTT4=
EXTT5=
EXTT6=
EXTT7=
EXTT8=
EXTT9=
EXTT10=
EXTT11=
EXTT12=
EXTT13=
EXTT14=
EXTT15=
PLAYORDER=
